<?xml version="1.0" encoding="iso-8859-1"?>
<!-- Generator: Adobe Illustrator 19.0.0, SVG Export Plug-In . SVG Version: 6.00 Build 0)  -->
<svg version="1.1" id="Layer_1" xmlns="http://www.w3.org/2000/svg" xmlns:xlink="http://www.w3.org/1999/xlink" x="0px" y="0px"
	 viewBox="0 0 499.595 499.595" style="enable-background:new 0 0 499.595 499.595;" xml:space="preserve">
<g>
	<g>
		<path d="M497.667,323.619c-0.853-5.547-1.813-11.093-2.773-16.64c-3.093-18.453-6.08-35.84-6.08-54.187v-49.493
			c0-13.227,5.333-109.973,10.667-187.093c0.427-5.867-4.053-10.987-9.92-11.413c-5.867-0.32-10.88,4.053-11.413,9.92
			c-5.333,77.44-10.667,175.04-10.667,188.587v49.6c0,20.053,3.2,39.253,6.4,57.707c0.96,5.44,1.813,10.88,2.667,16.32
			c2.667,17.067,1.493,36.587,0.427,55.467c-0.32,6.293-0.747,12.48-0.96,18.453c-0.747,22.187-12.373,41.92-30.293,51.307
			c-10.027,5.333-32.533,10.453-83.307,4.693c-6.293-0.64-12.373-1.6-18.56-2.453c-20.053-2.773-40.853-5.76-63.253-2.453
			l-6.293,0.853c-12.48,1.707-25.387,3.413-40.107,10.667c-10.88,5.12-22.507,8.32-34.453,9.28c-8.96,0.853-17.92,0.96-26.88,0.213
			c-8.107-0.747-16-3.84-24.533-7.253c-5.44-2.133-10.987-4.267-16.853-5.973c-15.68-4.48-29.547-3.627-42.88-2.88
			c-7.787,0.64-15.573,0.747-23.36,0.32c-19.2-1.493-41.173-11.307-43.307-24.533c-1.493-9.067-0.533-15.573,2.667-19.413
			c6.933-8.32,26.88-8.64,44.587-8.96c13.653-0.213,27.84-0.533,39.04-4.16c13.013-4.16,26.987-8.533,40.427-12.373
			c11.093-3.2,20.907-8.213,30.4-13.12c2.453-1.28,5.013-2.56,7.573-3.84c6.72-3.413,12.373-7.68,17.92-11.733
			c3.52-2.667,7.04-5.333,10.88-7.68c12.693-7.68,25.707-14.72,39.147-21.12c4.267-2.027,8.747-3.947,13.44-5.867
			c19.627-8.32,41.813-17.707,53.973-37.013c10.133-16,8.747-38.08,7.467-57.6c-0.32-5.44-0.64-10.56-0.64-15.04V31.566
			c0-5.333-3.84-10.133-9.067-10.88c-6.507-0.96-12.16,4.16-12.16,10.56v183.467c0,4.907,0.32,10.453,0.747,16.427
			c0.96,15.467,2.24,34.667-4.16,44.8c-8.64,13.653-26.88,21.333-44.373,28.8c-4.907,2.133-9.707,4.16-14.187,6.187
			c-14.08,6.613-27.84,14.08-41.173,22.187c-4.587,2.773-8.64,5.867-12.587,8.853c-4.907,3.733-9.6,7.253-14.613,9.707
			c-2.667,1.28-5.227,2.667-7.893,3.947c-8.96,4.587-17.387,8.96-26.453,11.52c-13.653,3.84-27.84,8.32-41.173,12.587
			c-8.213,2.667-20.8,2.88-32.853,3.093c-23.253,0.427-47.36,0.853-60.587,16.64c-7.36,8.853-9.813,21.12-7.36,36.587
			c4.907,30.08,43.2,40.747,62.72,42.24c8.747,0.533,17.493,0.427,26.133-0.213c12.16-0.747,23.573-1.387,35.84,2.133
			c4.907,1.387,9.813,3.307,14.933,5.333c9.493,3.733,19.307,7.573,30.4,8.64c4.267,0.427,8.96,0.64,13.76,0.64
			c5.44,0,11.2-0.213,16.96-0.747c14.507-1.173,28.8-5.013,41.92-11.307c11.627-5.653,21.76-7.04,33.6-8.64l6.507-0.853
			c19.307-2.773,37.76-0.213,57.28,2.56c6.293,0.853,12.693,1.707,19.093,2.453c45.653,5.12,77.013,2.773,95.68-7.04
			c24.64-13.013,40.64-39.68,41.6-69.44c0.213-5.867,0.533-11.947,0.96-18.027C499.48,363.513,500.76,342.926,497.667,323.619z"/>
	</g>
</g>
<g>
</g>
<g>
</g>
<g>
</g>
<g>
</g>
<g>
</g>
<g>
</g>
<g>
</g>
<g>
</g>
<g>
</g>
<g>
</g>
<g>
</g>
<g>
</g>
<g>
</g>
<g>
</g>
<g>
</g>
</svg>
