<?xml version="1.0" encoding="UTF-8"?>
<!-- Generated by Pixelmator Pro 2.4.1 -->
<svg width="499" height="499" viewBox="0 0 499 499" xmlns="http://www.w3.org/2000/svg" xmlns:xlink="http://www.w3.org/1999/xlink">
    <g id="g1">
        <g id="g2">
            <path id="path1" fill="#000000" stroke="none" d="M 497.666992 323.023987 C 496.813995 317.47699 495.854004 311.931 494.894012 306.384003 C 491.800995 287.931 488.813995 270.544006 488.813995 252.197006 L 488.813995 202.70401 C 488.813995 189.47702 494.147003 92.730988 499.480988 15.610992 C 499.90799 9.743988 495.428009 4.623993 489.561005 4.197998 C 483.694 3.877991 478.681 8.251007 478.14801 14.118011 C 472.815002 91.558014 467.480988 189.15802 467.480988 202.705017 L 467.480988 252.304993 C 467.480988 272.358002 470.681 291.558014 473.881012 310.011993 C 474.841003 315.451996 475.694 320.891998 476.548004 326.332001 C 479.214996 343.398987 478.040985 362.919006 476.975006 381.799011 C 476.654999 388.09201 476.227997 394.278992 476.015015 400.251984 C 475.268005 422.438995 463.641998 442.171997 445.721985 451.55899 C 435.695007 456.891998 413.188995 462.011993 362.415009 456.251984 C 356.122009 455.612 350.041992 454.652008 343.855011 453.799011 C 323.802002 451.026001 303.002014 448.039001 280.60199 451.346008 L 274.30899 452.199005 C 261.82901 453.906006 248.921997 455.612 234.201996 462.865997 C 223.322006 467.985992 211.695007 471.186005 199.748993 472.145996 C 190.789001 472.998993 181.828995 473.105988 172.869003 472.359009 C 164.761993 471.612 156.869003 468.519012 148.335999 465.105988 C 142.895996 462.972992 137.348999 460.838989 131.483002 459.132996 C 115.803001 454.652985 101.935997 455.506012 88.602997 456.252991 C 80.816002 456.893005 73.029999 457 65.242996 456.572998 C 46.042999 455.079987 24.07 445.265991 21.936001 432.040009 C 20.443001 422.972992 21.403 416.46701 24.603001 412.626984 C 31.535999 404.307007 51.483002 403.987 69.190002 403.666992 C 82.843002 403.45401 97.029999 403.134003 108.230003 399.506989 C 121.242996 395.346985 135.216995 390.973999 148.656998 387.134003 C 159.75 383.93399 169.563995 378.92099 179.057007 374.014008 C 181.509995 372.734009 184.070007 371.45401 186.630005 370.174011 C 193.350006 366.760986 199.003006 362.493988 204.550003 358.44101 C 208.070007 355.773987 211.589996 353.108002 215.429993 350.760986 C 228.123001 343.080994 241.136993 336.040985 254.576996 329.640991 C 258.843994 327.614014 263.324005 325.694 268.016998 323.773987 C 287.644012 315.45401 309.829987 306.066986 321.98999 286.760986 C 332.122986 270.760986 330.737 248.681 329.457001 229.161011 C 329.136993 223.721008 328.816986 218.601013 328.816986 214.121002 L 328.816986 30.971008 C 328.816986 25.638 324.97699 20.838013 319.75 20.091003 C 313.243011 19.131012 307.589996 24.251007 307.589996 30.651001 L 307.589996 214.118011 C 307.589996 219.024994 307.910004 224.571014 308.337006 230.545013 C 309.296997 246.011993 310.576996 265.212006 304.177002 275.345001 C 295.536987 288.997986 277.296997 296.678009 259.803986 304.144989 C 254.897003 306.277985 250.097 308.304993 245.617004 310.332001 C 231.537003 316.945007 217.776993 324.411987 204.444 332.519012 C 199.856995 335.291992 195.804001 338.385986 191.856995 341.372009 C 186.949997 345.105011 182.257004 348.625 177.244003 351.07901 C 174.576996 352.359009 172.016998 353.746002 169.350998 355.026001 C 160.391006 359.613007 151.964005 363.985992 142.897995 366.54599 C 129.244995 370.385986 115.057999 374.865997 101.724998 379.132996 C 93.512001 381.799988 80.925003 382.013 68.872002 382.226013 C 45.618999 382.652985 21.511999 383.07901 8.285 398.865997 C 0.925 407.718994 -1.528 419.985992 0.925 435.453003 C 5.832 465.53299 44.125 476.200012 63.645 477.692993 C 72.391998 478.226013 81.138 478.119995 89.778 477.480011 C 101.938004 476.733002 113.350998 476.092987 125.617996 479.613007 C 130.524994 481 135.431 482.920013 140.550995 484.945984 C 150.044006 488.678986 159.858002 492.519012 170.951004 493.585999 C 175.218002 494.013 179.910995 494.226013 184.710999 494.226013 C 190.151001 494.226013 195.910995 494.013 201.671005 493.479004 C 216.177994 492.306 230.470993 488.466003 243.591003 482.171997 C 255.218002 476.519012 265.351013 475.131989 277.19101 473.532013 L 283.697998 472.678986 C 303.005005 469.906006 321.458008 472.466003 340.977997 475.239014 C 347.270996 476.09201 353.67099 476.945984 360.071014 477.691986 C 405.723999 482.812012 437.084015 480.464996 455.751007 470.652008 C 480.390991 457.639008 496.390991 430.971985 497.351013 401.212006 C 497.563995 395.345001 497.884003 389.264984 498.311005 383.184998 C 499.480011 362.917999 500.76001 342.330994 497.666992 323.023987 Z"/>
        </g>
    </g>
    <g id="g3"/>
    <g id="g4"/>
    <g id="g5"/>
    <g id="g6"/>
    <g id="g7"/>
    <g id="g8"/>
    <g id="g9"/>
    <g id="g10"/>
    <g id="g11"/>
    <g id="g12"/>
    <g id="g13"/>
    <g id="g14"/>
    <g id="g15"/>
    <g id="g16"/>
    <g id="g17"/>
    <text id="text1" xml:space="preserve" x="106.5" y="79" text-anchor="middle" font-family="PingFang TC" font-size="48" fill="#000000">兩人三角</text>
</svg>
