<?xml version="1.0" encoding="UTF-8"?>
<svg width="700pt" height="700pt" version="1.1" viewBox="0 0 700 700" xmlns="http://www.w3.org/2000/svg" xmlns:xlink="http://www.w3.org/1999/xlink">
 <defs>
  <symbol id="u" overflow="visible">
   <path d="m3.7812-0.21875c-0.19922 0.09375-0.40234 0.16797-0.60938 0.21875-0.21094 0.050781-0.42969 0.078125-0.65625 0.078125-0.6875 0-1.2344-0.1875-1.6406-0.5625-0.39844-0.38281-0.59375-0.90625-0.59375-1.5625s0.19531-1.1758 0.59375-1.5625c0.40625-0.38281 0.95312-0.57812 1.6406-0.57812 0.22656 0 0.44531 0.027344 0.65625 0.078125 0.20703 0.054687 0.41016 0.13281 0.60938 0.23438v0.84375c-0.19922-0.13281-0.39844-0.23438-0.59375-0.29688-0.1875-0.0625-0.38672-0.09375-0.59375-0.09375-0.375 0-0.67188 0.125-0.89062 0.375-0.21875 0.24219-0.32812 0.57422-0.32812 1 0 0.41797 0.10938 0.75 0.32812 1 0.21875 0.24219 0.51562 0.35938 0.89062 0.35938 0.20703 0 0.40625-0.03125 0.59375-0.09375 0.19531-0.0625 0.39453-0.16016 0.59375-0.29688z"/>
  </symbol>
  <symbol id="c" overflow="visible">
   <path d="m2.7656-2.25c-0.085937-0.039062-0.17188-0.066406-0.26562-0.078125-0.085938-0.019531-0.16797-0.03125-0.25-0.03125-0.25 0-0.44922 0.085937-0.59375 0.25-0.13672 0.15625-0.20312 0.38672-0.20312 0.6875v1.4219h-0.98438v-3.0781h0.98438v0.5c0.13281-0.19531 0.28125-0.34375 0.4375-0.4375 0.16406-0.09375 0.36328-0.14062 0.59375-0.14062h0.10938c0.039062 0 0.097656 0.007812 0.17188 0.015625z"/>
  </symbol>
  <symbol id="a" overflow="visible">
   <path d="m3.5469-1.5469v0.28125h-2.2969c0.019531 0.23047 0.10156 0.40234 0.25 0.51562 0.14453 0.11719 0.34375 0.17188 0.59375 0.17188 0.20703 0 0.42188-0.03125 0.64062-0.09375s0.44141-0.15625 0.67188-0.28125v0.76562c-0.23047 0.085938-0.46484 0.14844-0.70312 0.1875-0.23047 0.050781-0.46094 0.078125-0.6875 0.078125-0.5625 0-1-0.14062-1.3125-0.42188-0.30469-0.28125-0.45312-0.67969-0.45312-1.2031 0-0.5 0.14844-0.89062 0.45312-1.1719 0.30078-0.28906 0.71875-0.4375 1.25-0.4375 0.48828 0 0.875 0.14844 1.1562 0.4375 0.28906 0.29297 0.4375 0.68359 0.4375 1.1719zm-1-0.32812c0-0.1875-0.058594-0.33594-0.17188-0.45312-0.10547-0.11328-0.24609-0.17188-0.42188-0.17188-0.19922 0-0.35938 0.054688-0.48438 0.15625-0.11719 0.10547-0.18359 0.26172-0.20312 0.46875z"/>
  </symbol>
  <symbol id="f" overflow="visible">
   <path d="m1.8594-1.3906c-0.21094 0-0.36719 0.039063-0.46875 0.10938-0.10547 0.074219-0.15625 0.17969-0.15625 0.3125 0 0.125 0.039063 0.22656 0.125 0.29688 0.082031 0.0625 0.19531 0.09375 0.34375 0.09375 0.1875 0 0.34375-0.0625 0.46875-0.1875 0.13281-0.13281 0.20312-0.30469 0.20312-0.51562v-0.10938zm1.5-0.375v1.7656h-0.98438v-0.45312c-0.13672 0.1875-0.28906 0.32422-0.45312 0.40625-0.16797 0.082031-0.37109 0.125-0.60938 0.125-0.3125 0-0.57031-0.09375-0.76562-0.28125-0.19922-0.1875-0.29688-0.42578-0.29688-0.71875 0-0.36328 0.11719-0.62891 0.35938-0.79688 0.25-0.16406 0.64062-0.25 1.1719-0.25h0.59375v-0.078125c0-0.15625-0.0625-0.26953-0.1875-0.34375-0.125-0.070313-0.32031-0.10938-0.57812-0.10938-0.21094 0-0.40625 0.023438-0.59375 0.0625-0.17969 0.042969-0.34375 0.10547-0.5 0.1875v-0.75c0.20703-0.050781 0.41406-0.085938 0.625-0.10938 0.21875-0.03125 0.42969-0.046875 0.64062-0.046875 0.5625 0 0.96094 0.10938 1.2031 0.32812 0.25 0.21875 0.375 0.57422 0.375 1.0625z"/>
  </symbol>
  <symbol id="b" overflow="visible">
   <path d="m1.5469-3.9531v0.875h1.0156v0.70312h-1.0156v1.2969c0 0.14844 0.023437 0.24609 0.078125 0.29688 0.0625 0.054688 0.17578 0.078125 0.34375 0.078125h0.51562v0.70312h-0.84375c-0.39844 0-0.67969-0.078125-0.84375-0.23438-0.15625-0.16406-0.23438-0.44531-0.23438-0.84375v-1.2969h-0.48438v-0.70312h0.48438v-0.875z"/>
  </symbol>
  <symbol id="k" overflow="visible">
   <path d="m2.5781-2.6406v-1.6406h0.98438v4.2812h-0.98438v-0.45312c-0.13672 0.1875-0.28906 0.32422-0.45312 0.40625-0.16797 0.082031-0.35547 0.125-0.5625 0.125-0.38672 0-0.70312-0.14844-0.95312-0.45312-0.24219-0.30078-0.35938-0.69141-0.35938-1.1719 0-0.46875 0.11719-0.85156 0.35938-1.1562 0.25-0.30078 0.56641-0.45312 0.95312-0.45312 0.20703 0 0.39453 0.042969 0.5625 0.125 0.16406 0.085938 0.31641 0.21484 0.45312 0.39062zm-0.65625 2c0.20703 0 0.36719-0.070313 0.48438-0.21875 0.11328-0.15625 0.17188-0.38281 0.17188-0.6875 0-0.28906-0.058594-0.50781-0.17188-0.65625-0.11719-0.15625-0.27734-0.23438-0.48438-0.23438-0.21094 0-0.37109 0.078125-0.48438 0.23438-0.10547 0.14844-0.15625 0.36719-0.15625 0.65625 0 0.30469 0.050781 0.53125 0.15625 0.6875 0.11328 0.14844 0.27344 0.21875 0.48438 0.21875z"/>
  </symbol>
  <symbol id="j" overflow="visible">
   <path d="m2.1094-0.64062c0.21875 0 0.37891-0.070313 0.48438-0.21875 0.11328-0.15625 0.17188-0.38281 0.17188-0.6875 0-0.28906-0.058594-0.50781-0.17188-0.65625-0.10547-0.15625-0.26562-0.23438-0.48438-0.23438-0.21094 0-0.37109 0.078125-0.48438 0.23438-0.11719 0.14844-0.17188 0.36719-0.17188 0.65625 0 0.29297 0.054687 0.51562 0.17188 0.67188 0.11328 0.15625 0.27344 0.23438 0.48438 0.23438zm-0.65625-2c0.13281-0.17578 0.28516-0.30469 0.45312-0.39062 0.16406-0.082031 0.35938-0.125 0.57812-0.125 0.375 0 0.67969 0.15234 0.92188 0.45312 0.25 0.30469 0.375 0.6875 0.375 1.1562 0 0.48047-0.125 0.87109-0.375 1.1719-0.24219 0.30469-0.54688 0.45312-0.92188 0.45312-0.21875 0-0.41406-0.042969-0.57812-0.125-0.16797-0.082031-0.32031-0.21875-0.45312-0.40625v0.45312h-0.98438v-4.2812h0.98438z"/>
  </symbol>
  <symbol id="e" overflow="visible">
   <path d="m0.0625-3.0781h1l0.82812 2.0938 0.70312-2.0938h0.98438l-1.2969 3.375c-0.13672 0.34375-0.29297 0.58203-0.46875 0.71875-0.16797 0.13281-0.39062 0.20312-0.67188 0.20312h-0.57812v-0.65625h0.3125c0.16406 0 0.28516-0.027344 0.35938-0.078125 0.082031-0.054687 0.14453-0.14844 0.1875-0.28125l0.015625-0.078125z"/>
  </symbol>
  <symbol id="i" overflow="visible">
   <path d="m0.51562-4.1094h2.8594v0.79688h-1.7969v0.76562h1.6875v0.79688h-1.6875v0.95312h1.8594v0.79688h-2.9219z"/>
  </symbol>
  <symbol id="h" overflow="visible">
   <path d="m0.4375-1.2031v-1.875h1v0.29688c0 0.16797-0.007812 0.38281-0.015625 0.64062v0.5c0 0.25 0.003906 0.43359 0.015625 0.54688 0.019531 0.10547 0.046875 0.17969 0.078125 0.21875 0.039063 0.074219 0.09375 0.125 0.15625 0.15625s0.13281 0.046875 0.21875 0.046875c0.20703 0 0.36719-0.078125 0.48438-0.23438 0.125-0.15625 0.1875-0.375 0.1875-0.65625v-1.5156h0.98438v3.0781h-0.98438v-0.45312c-0.15625 0.1875-0.32031 0.32422-0.48438 0.40625-0.16797 0.082031-0.35156 0.125-0.54688 0.125-0.35547 0-0.625-0.10938-0.8125-0.32812s-0.28125-0.53516-0.28125-0.95312z"/>
  </symbol>
  <symbol id="g" overflow="visible">
   <path d="m2.9688-2.9844v0.79688c-0.13672-0.09375-0.27344-0.16016-0.40625-0.20312-0.13672-0.039063-0.27734-0.0625-0.42188-0.0625-0.27344 0-0.48438 0.085937-0.64062 0.25-0.15625 0.15625-0.23438 0.375-0.23438 0.65625 0 0.29297 0.078125 0.52344 0.23438 0.6875 0.15625 0.15625 0.36719 0.23438 0.64062 0.23438 0.15625 0 0.30078-0.019531 0.4375-0.0625 0.14453-0.050781 0.27344-0.11719 0.39062-0.20312v0.79688c-0.15625 0.0625-0.3125 0.10156-0.46875 0.125-0.15625 0.03125-0.32031 0.046875-0.48438 0.046875-0.55469 0-0.98438-0.14062-1.2969-0.42188-0.3125-0.28906-0.46875-0.69141-0.46875-1.2031 0-0.5 0.15625-0.89062 0.46875-1.1719 0.3125-0.28906 0.74219-0.4375 1.2969-0.4375 0.16406 0 0.32812 0.015625 0.48438 0.046875 0.15625 0.023437 0.3125 0.0625 0.46875 0.125z"/>
  </symbol>
  <symbol id="t" overflow="visible">
   <path d="m0.46875-4.2812h0.98438v4.2812h-0.98438z"/>
  </symbol>
  <symbol id="s" overflow="visible">
   <path d="m1.4531-0.45312v1.625h-0.98438v-4.25h0.98438v0.4375c0.13281-0.17578 0.28516-0.30469 0.45312-0.39062 0.16406-0.082031 0.35938-0.125 0.57812-0.125 0.375 0 0.67969 0.15234 0.92188 0.45312 0.25 0.30469 0.375 0.6875 0.375 1.1562 0 0.48047-0.125 0.87109-0.375 1.1719-0.24219 0.30469-0.54688 0.45312-0.92188 0.45312-0.21875 0-0.41406-0.042969-0.57812-0.125-0.16797-0.082031-0.32031-0.21875-0.45312-0.40625zm0.65625-1.9844c-0.21094 0-0.37109 0.078125-0.48438 0.23438-0.11719 0.14844-0.17188 0.36719-0.17188 0.65625 0 0.29297 0.054687 0.51562 0.17188 0.67188 0.11328 0.15625 0.27344 0.23438 0.48438 0.23438 0.21875 0 0.37891-0.070313 0.48438-0.21875 0.11328-0.15625 0.17188-0.38281 0.17188-0.6875 0-0.28906-0.058594-0.50781-0.17188-0.65625-0.10547-0.15625-0.26562-0.23438-0.48438-0.23438z"/>
  </symbol>
  <symbol id="r" overflow="visible">
   <path d="m2.5-4.2812v0.64062h-0.54688c-0.13672 0-0.23438 0.027344-0.29688 0.078125-0.054688 0.054688-0.078125 0.14062-0.078125 0.26562v0.21875h0.84375v0.70312h-0.84375v2.375h-0.98438v-2.375h-0.48438v-0.70312h0.48438v-0.21875c0-0.33203 0.09375-0.57812 0.28125-0.73438 0.1875-0.16406 0.47656-0.25 0.875-0.25z"/>
  </symbol>
  <symbol id="d" overflow="visible">
   <path d="m1.9375-2.4531c-0.21875 0-0.38672 0.078125-0.5 0.23438-0.11719 0.15625-0.17188 0.38281-0.17188 0.67188 0 0.30469 0.054687 0.53125 0.17188 0.6875 0.11328 0.15625 0.28125 0.23438 0.5 0.23438s0.38281-0.078125 0.5-0.23438c0.11328-0.15625 0.17188-0.38281 0.17188-0.6875 0-0.28906-0.058594-0.51562-0.17188-0.67188-0.11719-0.15625-0.28125-0.23438-0.5-0.23438zm0-0.70312c0.53125 0 0.94141 0.14844 1.2344 0.4375 0.30078 0.28125 0.45312 0.67188 0.45312 1.1719 0 0.51172-0.15234 0.91406-0.45312 1.2031-0.29297 0.28125-0.70312 0.42188-1.2344 0.42188s-0.94922-0.14062-1.25-0.42188c-0.29297-0.28906-0.4375-0.69141-0.4375-1.2031 0-0.5 0.14453-0.89062 0.4375-1.1719 0.30078-0.28906 0.71875-0.4375 1.25-0.4375z"/>
  </symbol>
  <symbol id="q" overflow="visible">
   <path d="m3.3281-2.5781c0.125-0.1875 0.26953-0.32812 0.4375-0.42188 0.17578-0.10156 0.36719-0.15625 0.57812-0.15625 0.35156 0 0.625 0.10938 0.8125 0.32812s0.28125 0.53906 0.28125 0.95312v1.875h-1v-1.6094-0.0625-0.125c0-0.21875-0.03125-0.375-0.09375-0.46875-0.0625-0.10156-0.16797-0.15625-0.3125-0.15625-0.1875 0-0.33594 0.078125-0.4375 0.23438-0.09375 0.15625-0.14062 0.38281-0.14062 0.67188v1.5156h-1v-1.6094c0-0.34375-0.03125-0.5625-0.09375-0.65625-0.054687-0.10156-0.15625-0.15625-0.3125-0.15625-0.1875 0-0.33594 0.078125-0.4375 0.23438-0.10547 0.15625-0.15625 0.38281-0.15625 0.67188v1.5156h-0.98438v-3.0781h0.98438v0.4375c0.125-0.16406 0.26562-0.28906 0.42188-0.375 0.15625-0.09375 0.32812-0.14062 0.51562-0.14062 0.21875 0 0.40625 0.054688 0.5625 0.15625 0.16406 0.10547 0.28906 0.24609 0.375 0.42188z"/>
  </symbol>
  <symbol id="p" overflow="visible">
   <path d="m3.5781-1.875v1.875h-1v-1.4375c0-0.26953-0.007813-0.45312-0.015625-0.54688-0.011719-0.10156-0.03125-0.17969-0.0625-0.23438-0.03125-0.0625-0.085938-0.10938-0.15625-0.14062-0.0625-0.039063-0.13672-0.0625-0.21875-0.0625-0.21094 0-0.375 0.085937-0.5 0.25-0.11719 0.15625-0.17188 0.375-0.17188 0.65625v1.5156h-0.98438v-4.2812h0.98438v1.6406c0.15625-0.17578 0.31641-0.30469 0.48438-0.39062 0.16406-0.082031 0.34766-0.125 0.54688-0.125 0.35156 0 0.625 0.10938 0.8125 0.32812s0.28125 0.53906 0.28125 0.95312z"/>
  </symbol>
  <symbol id="o" overflow="visible">
   <path d="m0.51562-4.1094h1.1875l1.5 2.8125v-2.8125h1v4.1094h-1.1875l-1.5-2.8281v2.8281h-1z"/>
  </symbol>
  <symbol id="n" overflow="visible">
   <path d="m3.5781-1.875v1.875h-1v-1.4375c0-0.26953-0.007813-0.45312-0.015625-0.54688-0.011719-0.10156-0.03125-0.17969-0.0625-0.23438-0.03125-0.0625-0.085938-0.10938-0.15625-0.14062-0.0625-0.039063-0.13672-0.0625-0.21875-0.0625-0.21094 0-0.375 0.085937-0.5 0.25-0.11719 0.15625-0.17188 0.375-0.17188 0.65625v1.5156h-0.98438v-3.0781h0.98438v0.4375c0.15625-0.17578 0.31641-0.30469 0.48438-0.39062 0.16406-0.082031 0.34766-0.125 0.54688-0.125 0.35156 0 0.625 0.10938 0.8125 0.32812s0.28125 0.53906 0.28125 0.95312z"/>
  </symbol>
  <symbol id="m" overflow="visible">
   <path d="m0.51562-4.1094h1.7656c0.51953 0 0.92188 0.11719 1.2031 0.34375 0.28125 0.23047 0.42188 0.5625 0.42188 1 0 0.42969-0.14062 0.76172-0.42188 1-0.28125 0.23047-0.68359 0.34375-1.2031 0.34375h-0.70312v1.4219h-1.0625zm1.0625 0.76562v1.1562h0.59375c0.19531 0 0.35156-0.050781 0.46875-0.15625 0.11328-0.10156 0.17188-0.24219 0.17188-0.42188 0-0.1875-0.058594-0.32812-0.17188-0.42188-0.11719-0.10156-0.27344-0.15625-0.46875-0.15625z"/>
  </symbol>
  <symbol id="l" overflow="visible">
   <path d="m0.46875-3.0781h0.98438v3.0156c0 0.41406-0.10156 0.73438-0.29688 0.95312-0.19922 0.21875-0.48438 0.32812-0.85938 0.32812h-0.48438v-0.65625h0.17188c0.1875 0 0.3125-0.042969 0.375-0.125 0.070313-0.085938 0.10938-0.25 0.10938-0.5zm0-1.2031h0.98438v0.79688h-0.98438z"/>
  </symbol>
 </defs>
 <g>
  <path d="m259.68 151.41-0.95312-1.9062-16.156 8.082 0.95312 1.9062c6.5234 13.043 19.637 21.148 34.223 21.148 14.586 0 27.699-8.1055 34.223-21.148l0.95312-1.9062-16.156-8.082-0.95312 1.9062c-3.4453 6.8867-10.367 11.164-18.066 11.164-7.6992 0.003906-14.621-4.2734-18.066-11.164z"/>
  <path d="m422.26 180.64c14.586 0 27.699-8.1055 34.223-21.148l0.95312-1.9062-16.156-8.082-0.95312 1.9062c-3.4453 6.8867-10.367 11.164-18.066 11.164-7.6992 0-14.621-4.2773-18.066-11.168l-0.95312-1.9062-16.156 8.082 0.95312 1.9062c6.5234 13.047 19.637 21.152 34.223 21.152z"/>
  <path d="m557.74 126.45c-19.922 0-36.129 16.207-36.129 36.129 0 7.3047 1.7266 14.617 4.9922 21.148l3.7695 7.5391-3.8164 30.539-11.555-9.2461c-11.168-8.9336-25.195-13.852-39.5-13.852h-3.8633c8.6016-9.5938 13.844-22.262 13.844-36.129 19.922 0 36.129-16.207 36.129-36.129v-45.164c0-44.824-36.465-81.289-81.289-81.289h-36.129c-22.359 0-42.637 9.0781-57.348 23.738-16.809-15.188-38.762-23.738-61.625-23.738-17.652 0-34.32 6.4258-47.328 18.172-33.141 1.9297-59.508 29.504-59.508 63.117v45.16c0 19.922 16.207 36.129 36.129 36.129 0 4.5898 0.57812 9.0508 1.6602 13.312l-17.367-8.6797c-6.0547-3.0273-12.836-4.6289-19.605-4.6289-20.371 0-36.945 16.57-36.945 36.941 0 8.2422 2.7031 16.062 7.5859 22.43-16.176 21.48-25.648 48.102-25.648 76.488v32.016l-7.9453 7.9492c-6.5273 6.5273-10.121 15.207-10.121 24.438 0 19.066 15.512 34.574 34.574 34.574h3.1055c3.3203 0 6.5273-0.48047 9.5703-1.3594l-3.7852 5.6797c-4.8008 7.1992-7.3398 15.582-7.3398 24.238 0 7.75 2.0391 15.031 5.5938 21.352l-0.59766 1.1953c-3.2656 6.5352-4.9922 13.848-4.9922 21.152 0 19.922 16.207 36.129 36.129 36.129s36.129-16.207 36.129-36.129v-9.0117c3.793-2.6719 7.2383-5.8984 10.219-9.625l43.977-54.965v19.41c0 9.9609 8.1055 18.066 18.066 18.066v77.117c-10.789 6.2578-18.066 17.926-18.066 31.27 0 9.9609 8.1055 18.066 18.066 18.066h54.195c3.293 0 6.3711-0.89844 9.0312-2.4453 2.6602 1.543 5.7383 2.4453 9.0312 2.4453h54.195c9.9609 0 18.066-8.1055 18.066-18.066 0-13.344-7.2773-25.012-18.066-31.27v-15.082l13.055 8.7031 10.02-15.031-15.828-10.547 15.824-10.551-10.02-15.031-13.055 8.7031v-28.285c9.9609 0 18.066-8.1055 18.066-18.066v-19.41l43.973 54.965c2.9805 3.7266 6.4258 6.9531 10.219 9.6289v9.0117c0 19.922 16.207 36.129 36.129 36.129s36.129-16.207 36.129-36.129c0-7.3047-1.7266-14.617-4.9922-21.148l-0.59766-1.1953c3.5547-6.3164 5.5938-13.598 5.5938-21.352 0-8.6562-2.5391-17.035-7.3398-24.238l-46.855-70.281v-32.668l21.328 17.062c7.5 6 16.922 9.3047 26.527 9.3047 23.414 0 42.465-19.051 42.465-42.465v-120.11c0-19.922-16.207-36.129-36.129-36.129zm-270.97 289.03v-19.691c5.043-1.875 9.4453-5.293 12.527-9.9102l13.055-19.582-15.031-10.02-13.055 19.582c-1.4609 2.1836-3.8984 3.4922-6.5273 3.4922-2.6289 0-5.0664-1.3047-6.5273-3.4922l-13.055-19.582-15.031 10.02 11.938 17.906-23.477 29.344-49.355-28.203 28.082-42.121h95.43c3.6016 17.668 17.551 31.621 35.219 35.219v37.039zm-100.82 36.129c-14.137 0-25.633-11.5-25.633-25.633 0-5.0781 1.4883-9.9961 4.3047-14.219l7.5664-11.348 47.977 27.418-9.543 11.926c-6.0273 7.5312-15.02 11.855-24.672 11.855zm168.08-165.67-13.07 6.5391v67.254c-10.512-3.7266-18.066-13.77-18.066-25.543v-72.258c0-4.9805 4.0508-9.0312 9.0312-9.0312h18.066c4.9805 0 9.0312 4.0508 9.0312 9.0312v15.934c0 3.4414-1.9102 6.5352-4.9922 8.0742zm-4.0391-51.105h-18.066c-14.941 0-27.098 12.156-27.098 27.098v63.227l-90.32-0.003906v-90.324l-18.062 0.003906v13.699c-6.2773 5.1875-11.852 11.098-16.621 17.57l-27.352-13.676c13.48-28.883 39.301-51.238 71.297-59.59 6.4453 9.5391 15.848 16.918 26.875 20.828l-0.007813 12.133c0 14.941 12.156 27.098 27.098 27.098 14.941 0 27.098-12.156 27.098-27.098v-12.141c7.9609-2.8242 15.066-7.4531 20.828-13.402 17.113 4.5625 29.781 18.598 32.715 35.906-2.6445-0.85938-5.457-1.3281-8.3828-1.3281zm-45.16-108.39c6.5742 0 12.746-1.7656 18.066-4.8477l-0.003906 40.977c0 19.922-16.207 36.129-36.129 36.129h-18.066c-19.922 0-36.129-16.207-36.129-36.129l0.003906-63.227c0-4.9805 4.0508-9.0312 9.0312-9.0312h9.0312v-9.0312c0-4.9805 4.0508-9.0312 9.0312-9.0312s9.0312 4.0508 9.0312 9.0312v9.0312c0.003907 19.922 16.211 36.129 36.133 36.129zm54.191 18.062c-9.9609 0-18.066-8.1055-18.066-18.066 0-9.9609 8.1055-18.066 18.066-18.066zm-90.32 72.258h18.066v9.0312c0 4.9805-4.0508 9.0312-9.0312 9.0312-4.9805 0-9.0312-4.0508-9.0312-9.0312zm69.008-35.711c2.1016-5.7695 3.25-11.996 3.25-18.48v-4.8594c5.3203 3.0859 11.488 4.8594 18.066 4.8594 0 7.3867 1.4883 14.426 4.1758 20.848-8.4609-1.1328-16.969-1.9297-25.492-2.3672zm39.379-18.48v-63.227c0-4.9805 4.0508-9.0312 9.0312-9.0312h9.0312v-9.0312c0-4.9805 4.0508-9.0312 9.0312-9.0312 4.9805 0 9.0312 4.0508 9.0312 9.0312v18.066c0 14.941 12.156 27.098 27.098 27.098h27.098v36.129c0 19.922-16.207 36.129-36.129 36.129h-18.066c-19.918-0.003906-36.125-16.211-36.125-36.133zm36.129 54.191h18.066v9.0312c0 4.9805-4.0508 9.0312-9.0312 9.0312s-9.0312-4.0508-9.0312-9.0312zm72.258-72.258v-36.129c9.9609 0 18.066 8.1055 18.066 18.066-0.003906 9.957-8.1055 18.062-18.066 18.062zm-81.289-126.45h36.129c34.863 0 63.227 28.363 63.227 63.227v13.895c-5.3203-3.0898-11.488-4.8633-18.066-4.8633v-18.066h-18.066v36.129h-27.098c-4.9805 0-9.0312-4.0508-9.0312-9.0312v-18.066c0-14.941-12.156-27.098-27.098-27.098-12.207 0-22.555 8.1133-25.934 19.23-8.2305 2.5039-14.805 8.832-17.668 16.902h-1.5586c-6.5781 0-12.746 1.7773-18.066 4.8594l0.003906-13.895c0-34.859 28.363-63.223 63.227-63.223zm-162.58 18.062h3.7422l2.6445-2.6445c9.9414-9.9453 23.164-15.418 37.227-15.418 18.727 0 36.691 7.1562 50.293 19.816-7.9766 12.566-12.617 27.449-12.617 43.406v9.0312c0 9.9609-8.1055 18.066-18.066 18.066-9.9609 0-18.066-8.1055-18.066-18.066v-9.0312c0-14.941-12.156-27.098-27.098-27.098-12.207 0-22.555 8.1133-25.934 19.23-8.2266 2.5039-14.801 8.832-17.664 16.902h-1.5586c-6.5781 0-12.746 1.7773-18.066 4.8594l0.003906-13.895c0-24.902 20.258-45.16 45.16-45.16zm-45.16 90.324c0-9.9609 8.1055-18.066 18.066-18.066v36.129c-9.9648 0-18.066-8.1055-18.066-18.062zm-17.25 54.191c3.9805 0 7.9688 0.94141 11.527 2.7227l3.1875 1.5938c-11.77 5.9844-22.426 13.734-31.676 22.863-1.2461-2.543-1.918-5.3711-1.918-8.3008 0-10.41 8.4688-18.879 18.879-18.879zm-38.5 198.71c-9.1016 0-16.508-7.4102-16.508-16.512 0-4.4102 1.7188-8.5547 4.832-11.672l13.23-13.238v-39.492c0-9.9727 1.375-19.688 3.9375-28.953l24.254 12.125c-6.5586 13.426-10.125 28.32-10.125 43.547v37.684c0 9.1055-7.4102 16.512-16.512 16.512zm37.684-54.195c0-18.668 6.5469-36.715 18.066-51.039v57.336l-18.066 27.098zm18.066 144.52c0 9.9609-8.1055 18.066-18.066 18.066-9.9609 0-18.066-8.1055-18.066-18.066 0-2.5664 0.35547-5.1289 1.0234-7.6094 7.0156 4.7969 15.492 7.6094 24.613 7.6094 3.5742 0 7.0859-0.39062 10.496-1.1211zm144.52-36.129v36.129h-36.129v-36.129zm-36.129 54.195h36.129v22.926c-5.3203-3.0859-11.488-4.8594-18.066-4.8594h-18.066zm-18.066 54.191c0-9.9609 8.1055-18.066 18.066-18.066h18.066c9.9609 0 18.066 8.1055 18.066 18.066zm126.45 0h-54.195c0-9.9609 8.1055-18.066 18.066-18.066h18.066c9.9609 0 18.066 8.1055 18.074 18.066h-0.011719zm-36.129-36.129c-6.5781 0-12.746 1.7773-18.066 4.8594v-22.922h36.129v18.066zm18.062-36.129h-36.129v-36.129h36.129zm126.45 18.066c-9.9609 0-18.066-8.1055-18.066-18.066v-1.1211c3.4102 0.73047 6.9219 1.1211 10.496 1.1211 9.1211 0 17.594-2.8125 24.609-7.6094 0.66797 2.4805 1.0234 5.043 1.0234 7.6094 0 9.9609-8.1016 18.066-18.062 18.066zm18.062-61.762c0 14.133-11.496 25.633-25.633 25.633-9.6523 0-18.645-4.3242-24.676-11.859l-9.543-11.926 47.977-27.414 7.5664 11.348c2.8203 4.2227 4.3086 9.1406 4.3086 14.219zm-21.914-40.637-49.355 28.203-23.477-29.344 11.938-17.906-15.031-10.02-13.055 19.582c-1.4531 2.1875-3.8945 3.4961-6.5234 3.4961-2.6289 0-5.0664-1.3047-6.5273-3.4922l-13.055-19.582-15.031 10.02 13.055 19.582c3.0781 4.6172 7.4844 8.0352 12.527 9.9102v19.691h-54.195v-72.258h130.65zm-14.215-109.68v-22.758h-18.066v72.258h-126.45v-21.516l3.0859-1.543c9.2383-4.6172 14.98-13.906 14.98-24.234v-33.996c0-16.328-6.1055-31.277-16.324-42.543 6 0.80469 11.969 1.7969 17.895 2.9648 4.8555 4.0312 10.43 7.2227 16.492 9.375v12.137c0 14.941 12.156 27.098 27.098 27.098 14.941 0 27.098-12.156 27.098-27.098v-9.0312h26.152c10.215 0 20.234 3.5156 28.211 9.8945l20.211 16.168-1.9492 15.594-14.984 19.98zm72.258 7.0352c0 13.453-10.945 24.402-24.402 24.402-5.5195 0-10.934-1.8984-15.246-5.3477l-15.055-12.043 10.516-14.02 10.699 10.699 12.773-12.773-14.941-14.941 8.8242-70.59-6.2148-12.434c-2.0117-4.0352-3.082-8.5547-3.082-13.066 0-9.9609 8.1055-18.066 18.066-18.066 9.9609 0 18.066 8.1055 18.066 18.066z"/>
  <use x="106.128906" y="576.933594" xlink:href="#u"/>
  <use x="110.273438" y="576.933594" xlink:href="#c"/>
  <use x="113.054688" y="576.933594" xlink:href="#a"/>
  <use x="116.882812" y="576.933594" xlink:href="#f"/>
  <use x="120.695312" y="576.933594" xlink:href="#b"/>
  <use x="123.390625" y="576.933594" xlink:href="#a"/>
  <use x="127.222656" y="576.933594" xlink:href="#k"/>
  <use x="133.226562" y="576.933594" xlink:href="#j"/>
  <use x="137.269531" y="576.933594" xlink:href="#e"/>
  <use x="142.914062" y="576.933594" xlink:href="#i"/>
  <use x="146.769531" y="576.933594" xlink:href="#h"/>
  <use x="150.789062" y="576.933594" xlink:href="#g"/>
  <use x="154.136719" y="576.933594" xlink:href="#f"/>
  <use x="157.945312" y="576.933594" xlink:href="#t"/>
  <use x="159.878906" y="576.933594" xlink:href="#e"/>
  <use x="163.558594" y="576.933594" xlink:href="#s"/>
  <use x="106.128906" y="582.582031" xlink:href="#r"/>
  <use x="108.585938" y="582.582031" xlink:href="#c"/>
  <use x="111.367188" y="582.582031" xlink:href="#d"/>
  <use x="115.246094" y="582.582031" xlink:href="#q"/>
  <use x="123.09375" y="582.582031" xlink:href="#b"/>
  <use x="125.792969" y="582.582031" xlink:href="#p"/>
  <use x="129.8125" y="582.582031" xlink:href="#a"/>
  <use x="135.605469" y="582.582031" xlink:href="#o"/>
  <use x="140.332031" y="582.582031" xlink:href="#d"/>
  <use x="144.210938" y="582.582031" xlink:href="#h"/>
  <use x="148.226562" y="582.582031" xlink:href="#n"/>
  <use x="154.210938" y="582.582031" xlink:href="#m"/>
  <use x="158.347656" y="582.582031" xlink:href="#c"/>
  <use x="161.132812" y="582.582031" xlink:href="#d"/>
  <use x="165.011719" y="582.582031" xlink:href="#l"/>
  <use x="166.945312" y="582.582031" xlink:href="#a"/>
  <use x="170.777344" y="582.582031" xlink:href="#g"/>
  <use x="174.121094" y="582.582031" xlink:href="#b"/>
 </g>
</svg>
