<?xml version="1.0" encoding="iso-8859-1"?>
<!-- Generator: Adobe Illustrator 18.0.0, SVG Export Plug-In . SVG Version: 6.00 Build 0)  -->
<!DOCTYPE svg PUBLIC "-//W3C//DTD SVG 1.1//EN" "http://www.w3.org/Graphics/SVG/1.1/DTD/svg11.dtd">
<svg version="1.1" id="Capa_1" xmlns="http://www.w3.org/2000/svg" xmlns:xlink="http://www.w3.org/1999/xlink" x="0px" y="0px"
	 viewBox="0 0 497.908 497.908" style="enable-background:new 0 0 497.908 497.908;" xml:space="preserve">
<g id="XMLID_177_">
	<path id="XMLID_185_" d="M9.301,415.507c8.075,4.672,18.373,1.874,23.018-6.128l34.607-59.671c1.406-2.427,2.188-5.174,2.262-7.979
		l0.888-31.934l28.915,15.231l-18.831,46.958c-3.464,8.635,0.73,18.439,9.365,21.9c8.719,3.488,18.464-0.805,21.9-9.366
		l24.483-61.054c3.208-8.011-0.149-17.148-7.789-21.17l-35.821-18.865l2.475-6.529l27.509-3.307
		c9.235-1.11,15.823-9.49,14.712-18.726c-1.11-9.235-9.522-15.813-18.725-14.712l-10.025,1.201l5.395-14.221
		c4.942-13.043-1.628-27.632-14.671-32.581c-10.823-4.071-22.813,0.263-28.604,7.029l-46.819,54.394
		c-4.538,5.263-5.369,12.779-2.097,18.916c3.341,6.25,10.133,9.588,16.703,8.798c0,0-1.167,4.375-1.208,5.839l-1.309,46.984
		L3.175,392.488C-1.489,400.531,1.249,410.836,9.301,415.507z"/>
	<path id="XMLID_184_" d="M109.082,191.636c16.315,6.192,34.539-2.023,40.716-18.332c6.184-16.307-2.015-34.539-18.33-40.724
		c-16.316-6.185-34.541,2.022-40.726,18.332C84.558,167.227,92.757,185.451,109.082,191.636z"/>
	<path id="XMLID_183_" d="M235.895,170.904l10.017,2.557l-10.593,18.577c-1.957,4.079-2.368,8.874-0.576,13.413l16.537,41.886
		l-17.153,48.891c-3.076,8.775,1.546,18.389,10.321,21.473c8.98,3.124,18.454-1.728,21.472-10.321l19.228-54.811
		c1.333-3.826,1.258-7.994-0.231-11.761l-6.9-17.476l23.224,17.574l-9.843,36.563c-2.418,8.98,2.911,18.224,11.892,20.642
		c8.965,2.419,18.217-2.887,20.642-11.893l12.788-47.516c1.778-6.621-0.633-13.67-6.102-17.807l-37.402-28.305l3.56-6.145
		l13.619,3.48c8.815,2.276,18.149-2.986,20.486-12.147c2.301-9.015-3.134-18.192-12.147-20.485l-4.399-1.127l5.345-9.212
		c7.007-12.072,2.894-27.525-9.178-34.524c-8.002-4.663-17.434-4.334-24.951-0.132c-5.223,2.229-48.208,24.73-53.249,27.345
		c-6.202,3.215-9.77,9.927-8.972,16.867C224.133,163.453,229.126,169.176,235.895,170.904z"/>
	<path id="XMLID_182_" d="M320.955,111.19c15.088,8.758,34.417,3.608,43.159-11.482c8.75-15.073,3.617-34.4-11.474-43.15
		c-15.091-8.758-34.409-3.617-43.159,11.465C300.723,83.122,305.855,102.439,320.955,111.19z"/>
	<path id="XMLID_181_" d="M489.486,428.78H8.422c-4.655,0-8.422,3.766-8.422,8.421c0,4.655,3.767,8.421,8.422,8.421h481.064
		c4.656,0,8.422-3.766,8.422-8.421C497.908,432.546,494.142,428.78,489.486,428.78z"/>
	<path id="XMLID_180_" d="M489.486,378.253H143.161c-4.655,0-8.42,3.766-8.42,8.421c0,4.655,3.765,8.421,8.42,8.421h346.325
		c4.656,0,8.422-3.766,8.422-8.421C497.908,382.019,494.142,378.253,489.486,378.253z"/>
	<path id="XMLID_179_" d="M489.486,326.393H227.374c-4.655,0-8.422,3.767-8.422,8.421c0,4.656,3.767,8.422,8.422,8.422h262.111
		c4.656,0,8.422-3.766,8.422-8.422C497.908,330.159,494.142,326.393,489.486,326.393z"/>
	<path id="XMLID_178_" d="M336.852,284.286c0,4.655,3.765,8.421,8.421,8.421h144.213c4.656,0,8.422-3.766,8.422-8.421
		c0-4.655-3.766-8.421-8.422-8.421H345.272C340.617,275.865,336.852,279.631,336.852,284.286z"/>
</g>
<g>
</g>
<g>
</g>
<g>
</g>
<g>
</g>
<g>
</g>
<g>
</g>
<g>
</g>
<g>
</g>
<g>
</g>
<g>
</g>
<g>
</g>
<g>
</g>
<g>
</g>
<g>
</g>
<g>
</g>
</svg>
