<?xml version="1.0" encoding="UTF-8"?>
<!-- Generated by Pixelmator Pro 2.4.1 -->
<svg width="497" height="497" viewBox="0 0 497 497" xmlns="http://www.w3.org/2000/svg" xmlns:xlink="http://www.w3.org/1999/xlink">
    <g id="XMLID177">
        <path id="XMLID185" fill="#000000" stroke="none" d="M 9.301 414.598999 C 17.375999 419.270996 27.674 416.473022 32.319 408.471008 L 66.926003 348.799988 C 68.332001 346.372986 69.113998 343.625977 69.188004 340.820984 L 70.075996 308.887024 L 98.990997 324.117981 L 80.160004 371.076019 C 76.695999 379.710999 80.889999 389.515015 89.525002 392.976013 C 98.244003 396.46402 107.988998 392.171021 111.425003 383.610016 L 135.908005 322.555969 C 139.115997 314.544983 135.759003 305.40802 128.119003 301.385986 L 92.297997 282.520996 L 94.773003 275.992004 L 122.281998 272.684998 C 131.516998 271.575012 138.104996 263.195007 136.994003 253.959 C 135.884003 244.723999 127.472 238.145996 118.268997 239.247009 L 108.244003 240.447998 L 113.639 226.22699 C 118.581001 213.18399 112.011002 198.595001 98.968002 193.645996 C 88.144997 189.575012 76.154999 193.908997 70.363998 200.674988 L 23.545 255.069 C 19.007 260.33197 18.176001 267.848022 21.448 273.984985 C 24.789 280.234985 31.580999 283.572998 38.151001 282.78302 C 38.151001 282.78302 36.984001 287.15802 36.943001 288.622009 L 35.633999 335.606018 L 3.175 391.580017 C -1.489 399.623016 1.249 409.928009 9.301 414.598999 Z"/>
        <path id="XMLID184" fill="#000000" stroke="none" d="M 109.082001 190.727997 C 125.397003 196.920013 143.621002 188.705017 149.798004 172.395996 C 155.981995 156.088989 147.783005 137.856995 131.468002 131.671997 C 115.152 125.487 96.927002 133.694 90.741997 150.003998 C 84.557999 166.319 92.757004 184.542999 109.082001 190.727997 Z"/>
        <path id="XMLID183" fill="#000000" stroke="none" d="M 235.895004 169.996002 L 245.912003 172.553009 L 235.319 191.130005 C 233.362 195.209015 232.951004 200.003998 234.742996 204.542999 L 251.279999 246.429001 L 234.126999 295.320007 C 231.050995 304.094971 235.673004 313.708984 244.447998 316.792969 C 253.427994 319.916992 262.902008 315.065002 265.920013 306.471985 L 285.14801 251.660995 C 286.480988 247.834991 286.406006 243.666992 284.916992 239.899994 L 278.016998 222.424011 L 301.240997 239.998016 L 291.39801 276.560974 C 288.980011 285.541016 294.30899 294.784973 303.290009 297.203003 C 312.255005 299.622009 321.506989 294.315979 323.932007 285.309998 L 336.720001 237.794006 C 338.497986 231.173004 336.087006 224.123993 330.618011 219.987 L 293.216003 191.682007 L 296.776001 185.537018 L 310.394989 189.016998 C 319.209991 191.292999 328.544006 186.031006 330.881012 176.869995 C 333.182007 167.855011 327.747009 158.678009 318.734009 156.38501 L 314.334991 155.257996 L 319.679993 146.04599 C 326.687012 133.973999 322.574005 118.520996 310.502014 111.522003 C 302.5 106.859009 293.067993 107.187988 285.550995 111.389984 C 280.328003 113.618988 237.343002 136.119995 232.302002 138.735016 C 226.100006 141.950012 222.531998 148.662018 223.330002 155.60199 C 224.132996 162.545013 229.126007 168.268005 235.895004 169.996002 Z"/>
        <path id="XMLID182" fill="#000000" stroke="none" d="M 320.954987 110.282013 C 336.042999 119.040009 355.372009 113.889984 364.114014 98.799988 C 372.864014 83.72699 367.730988 64.399994 352.640015 55.649994 C 337.549011 46.891998 318.230988 52.03299 309.480988 67.11499 C 300.722992 82.213989 305.855011 101.531006 320.954987 110.282013 Z"/>
        <path id="XMLID181" fill="#000000" stroke="none" d="M 489.485992 427.872009 L 8.422 427.872009 C 3.767 427.872009 0 431.638 0 436.292999 C 0 440.947998 3.767 444.71402 8.422 444.71402 L 489.485992 444.71402 C 494.141998 444.71402 497.90799 440.947998 497.90799 436.292999 C 497.90799 431.638 494.141998 427.872009 489.485992 427.872009 Z"/>
        <path id="XMLID180" fill="#000000" stroke="none" d="M 489.485992 377.345001 L 143.160995 377.345001 C 138.505997 377.345001 134.740997 381.111023 134.740997 385.766022 C 134.740997 390.421021 138.505997 394.187012 143.160995 394.187012 L 489.485992 394.187012 C 494.141998 394.187012 497.90799 390.421021 497.90799 385.766022 C 497.90799 381.111023 494.141998 377.345001 489.485992 377.345001 Z"/>
        <path id="XMLID179" fill="#000000" stroke="none" d="M 489.485992 325.484985 L 227.373993 325.484985 C 222.718994 325.484985 218.951996 329.252014 218.951996 333.906006 C 218.951996 338.562012 222.718994 342.328003 227.373993 342.328003 L 489.484985 342.328003 C 494.140991 342.328003 497.907013 338.562012 497.907013 333.906006 C 497.90799 329.250977 494.141998 325.484985 489.485992 325.484985 Z"/>
        <path id="XMLID178" fill="#000000" stroke="none" d="M 336.85199 283.377991 C 336.85199 288.03302 340.617004 291.799011 345.27301 291.799011 L 489.485992 291.799011 C 494.141998 291.799011 497.90799 288.03302 497.90799 283.377991 C 497.90799 278.723022 494.141998 274.95697 489.485992 274.95697 L 345.272003 274.95697 C 340.617004 274.95697 336.85199 278.723022 336.85199 283.377991 Z"/>
    </g>
    <g id="g1"/>
    <g id="g2"/>
    <g id="g3"/>
    <g id="g4"/>
    <g id="g5"/>
    <g id="g6"/>
    <g id="g7"/>
    <g id="g8"/>
    <g id="g9"/>
    <g id="g10"/>
    <g id="g11"/>
    <g id="g12"/>
    <g id="g13"/>
    <g id="g14"/>
    <g id="g15"/>
    <text id="text1" xml:space="preserve" x="21" y="67" font-family="PingFang TC" font-size="48" fill="#000000">大隊接力</text>
</svg>
