<?xml version="1.0" encoding="UTF-8"?>
<!-- Generated by Pixelmator Pro 2.4.1 -->
<svg width="256" height="256" viewBox="0 0 256 256" xmlns="http://www.w3.org/2000/svg" xmlns:xlink="http://www.w3.org/1999/xlink">
    <path id="XMLID2" fill="#000000" stroke="none" d="M 172.100006 100.399994 C 169.5 92.100006 174.100006 83.199997 182.399994 80.600006 C 190.699997 78 199.600006 82.600006 202.199997 90.899994 C 204.800003 99.199997 200.199997 108.100006 191.899994 110.699997 C 183.600006 113.399994 174.800003 108.800003 172.100006 100.399994 Z M 11 110.699997 C 19.299999 113.300003 28.200001 108.699997 30.799999 100.399994 C 33.400002 92.100006 28.799999 83.199997 20.5 80.600006 C 12.2 78 3.3 82.600006 0.7 90.899994 C -1.9 99.199997 2.7 108.100006 11 110.699997 Z M 255.300003 126.199997 C 255.699997 127.5 255.899994 128.899994 255.899994 130.300003 L 251.899994 169.300003 C 251.100006 176.699997 247.199997 181.600006 240 183.800003 L 198.399994 197 C 198.399994 197 188.600006 228 188.5 228 C 187.199997 232.5 183.100006 235.800003 178.100006 235.800003 C 172.100006 235.800003 167.199997 230.899994 167.199997 224.899994 C 167.199997 223 168.600006 219.600006 168.600006 219.600006 C 168.800003 218.899994 177.300003 195.399994 180.800003 185.699997 L 145.399994 196.899994 C 145.399994 196.899994 135.600006 227.899994 135.5 227.899994 C 134.199997 232.399994 130.100006 235.699997 125.099998 235.699997 C 119.099998 235.699997 114.199997 230.800003 114.199997 224.800003 C 114.199997 222.899994 115.599998 219.5 115.599998 219.5 C 115.800003 218.600006 129.199997 181.5 129.199997 181.5 C 130.399994 179.199997 132.399994 177.600006 135.199997 176.699997 L 165.600006 167.100006 C 165.600006 167.100006 166.5 144.399994 166.5 144 L 144.399994 144 L 123.800003 150.5 C 119.400002 151.899994 114.599998 149.399994 113.199997 145 C 113.099998 144.699997 113 144.300003 113 144 L 89.699997 144 C 89.599998 144.300003 89.599998 144.699997 89.5 145 C 88.099998 149.399994 83.400002 151.899994 78.900002 150.5 L 36.200001 137 L 37.099998 167.100006 L 67.5 176.699997 C 70.300003 177.600006 72.300003 179.199997 73.5 181.5 C 73.5 181.5 86.900002 218.600006 87.099998 219.5 C 87.099998 219.5 88.5 222.899994 88.5 224.800003 C 88.5 230.800003 83.599998 235.699997 77.599998 235.699997 C 72.699997 235.699997 68.599998 232.399994 67.199997 227.899994 C 67.199997 227.800003 57.299999 196.899994 57.299999 196.899994 L 15.8 183.800003 C 8.6 181.5 4.6 176.699997 3.9 169.300003 L -0.1 130.300003 C -0.1 128.899994 0.1 127.5 0.5 126.199997 C 1.9 121.600006 4.8 118.300003 9.1 116.199997 C 13.4 114.100006 17.799999 113.800003 22.4 115.199997 L 84 134.699997 C 86.199997 135.399994 87.800003 137 88.800003 139 L 114.199997 139 C 115.199997 137 116.900002 135.399994 119 134.699997 L 180.600006 115 C 185.199997 113.600006 189.600006 113.899994 193.899994 116 C 197.800003 118 200.5 121 202.100006 125 L 233.5 115.100006 C 238.100006 113.699997 242.5 114 246.800003 116.100006 C 251 118.300003 253.800003 121.600006 255.300003 126.199997 Z M 219.699997 137.100006 L 201.800003 142.800003 L 201.800003 142.800003 L 178.699997 149.800003 L 179.899994 153.600006 L 201.5 147.100006 L 199.199997 169.199997 C 199 170.899994 198.699997 172.399994 198.199997 173.800003 L 219 167.199997 L 219.699997 137.100006 Z M 244.800003 110.899994 C 253.100006 108.300003 257.700012 99.399994 255.100006 91.100006 C 252.5 82.800003 243.600006 78.199997 235.300003 80.800003 C 227 83.399994 222.399994 92.300003 225 100.600006 C 227.600006 108.899994 236.5 113.5 244.800003 110.899994 Z"/>
</svg>
