<?xml version="1.0" encoding="iso-8859-1"?>
<!-- Generator: Adobe Illustrator 18.1.1, SVG Export Plug-In . SVG Version: 6.00 Build 0)  -->
<svg version="1.1" id="Capa_1" xmlns="http://www.w3.org/2000/svg" xmlns:xlink="http://www.w3.org/1999/xlink" x="0px" y="0px"
	 viewBox="0 0 74.985 74.985" style="enable-background:new 0 0 74.985 74.985;" xml:space="preserve">
<g>
	<g>
		<path style="fill:#010002;" d="M30.074,18.648h-0.56c1.701-1.98,2.737-4.544,2.737-7.351C32.251,5.068,27.183,0,20.955,0
			S9.659,5.068,9.659,11.297c0,2.807,1.036,5.37,2.735,7.351h-0.559c-3.145,0-5.702,2.556-5.702,5.702v18.736
			c0,3.146,2.558,5.702,5.702,5.702h0.217v20.495c0,3.251,1.713,5.702,3.984,5.702h9.835c2.272,0,3.984-2.451,3.984-5.702V48.788
			h0.218c3.145,0,5.703-2.557,5.703-5.702V24.35C35.777,21.203,33.219,18.648,30.074,18.648z M20.955,3.946
			c4.052,0,7.349,3.297,7.349,7.352c0,4.054-3.297,7.351-7.349,7.351c-4.053,0-7.349-3.297-7.349-7.351
			C13.607,7.242,16.902,3.946,20.955,3.946z M31.831,43.086c0,0.969-0.788,1.756-1.756,1.756h-2.191
			c-1.09,0-1.974,0.885-1.974,1.975v22.467c0,0.883-0.227,1.487-0.383,1.756h-9.143C16.228,70.771,16,70.167,16,69.284V46.817
			c0-1.09-0.883-1.975-1.973-1.975h-2.191c-0.968,0-1.756-0.787-1.756-1.756V24.35c0-0.969,0.788-1.757,1.756-1.757h18.239
			c0.968,0,1.756,0.788,1.756,1.757V43.086z"/>
		<path style="fill:#010002;" d="M63.149,18.648h-0.56c1.701-1.98,2.736-4.544,2.736-7.351C65.326,5.068,60.258,0,54.029,0
			c-6.228,0-11.295,5.067-11.295,11.297c0,2.807,1.036,5.37,2.736,7.351h-0.56c-3.145,0-5.702,2.556-5.702,5.702v18.736
			c0,3.146,2.557,5.702,5.702,5.702h0.218v20.495c0,3.251,1.711,5.702,3.983,5.702h9.836c2.271,0,3.984-2.451,3.984-5.702V48.788
			h0.218c3.144,0,5.702-2.557,5.702-5.702V24.35C68.852,21.203,66.294,18.648,63.149,18.648z M54.029,3.946
			c4.053,0,7.349,3.297,7.349,7.352c0,4.054-3.296,7.351-7.349,7.351c-4.052,0-7.348-3.297-7.348-7.351
			C46.681,7.242,49.977,3.946,54.029,3.946z M64.905,43.086c0,0.969-0.788,1.756-1.755,1.756h-2.192
			c-1.09,0-1.973,0.885-1.973,1.975v22.467c0,0.883-0.227,1.487-0.383,1.756h-9.145c-0.155-0.269-0.382-0.873-0.382-1.756V46.817
			c0-1.09-0.883-1.975-1.974-1.975h-2.191c-0.968,0-1.756-0.787-1.756-1.756V24.35c0-0.969,0.788-1.757,1.756-1.757h18.239
			c0.968,0,1.755,0.788,1.755,1.757v18.736H64.905z"/>
	</g>
</g>
<g>
</g>
<g>
</g>
<g>
</g>
<g>
</g>
<g>
</g>
<g>
</g>
<g>
</g>
<g>
</g>
<g>
</g>
<g>
</g>
<g>
</g>
<g>
</g>
<g>
</g>
<g>
</g>
<g>
</g>
</svg>
